<svg xmlns="http://www.w3.org/2000/svg" version="1.1" viewBox="0 0 1024 1280" x="0px" y="0px">
    <title>paper-plane</title>
    <path d="M989.3 95.2c-11.5-9.5-27.3-12-41.3-6.3l-889.5 362c-0.2 0.1-0.4 0.2-0.6 0.3-24.6 11.1-39.4 35.4-37.9 62 0 0.1 0 0.2 0 0.2 1.7 26.8 19.3 49 45 56.7l336.7 101.8 12.2 228c0 0 0 0.1 0 0.1 1 16.4 11.7 30.4 27.3 35.9 4.2 1.6 8.7 2.4 13.5 2.4 11.8 0 22.6-4.8 30.5-13.6l113-125.1 162.1 112.2c10.7 7.5 23.1 11.4 36.1 11.4 29.7 0 55.9-21.3 62.1-50.6 0-0.1 0-0.2 0.1-0.3l144.8-737.7c2.8-14.6-2.7-30-14.1-39.4zM896.2 257.3l-112.3 571.8-279.1-193.2 391.4-378.6zM530.6 752.7l-40.8 45.1-4-76.1 44.8 31zM799.5 237.3l-369.8 357.8-292.2-88.3 662-269.5z" fill="#A5A5A5"/>
    <text x="0" y="1039" fill="#CCCCCC" font-size="5px" font-weight="bold" font-family="'Helvetica Neue', Helvetica, Arial-Unicode, Arial, Sans-serif">Created by shuai tawf</text>
    <text x="0" y="1044" fill="#000000" font-size="5px" font-weight="bold" font-family="'Helvetica Neue', Helvetica, Arial-Unicode, Arial, Sans-serif"></text>
</svg>
